<?xml version="1.0" encoding="UTF-8"?>
<!-- Generated by Pixelmator Pro 3.8 -->
<svg width="1080" height="1080" viewBox="0 0 1080 1080" xmlns="http://www.w3.org/2000/svg">
    <linearGradient id="linearGradient1" x1="270" y1="72.346282" x2="810" y2="1007.653718" gradientUnits="userSpaceOnUse">
        <stop offset="0" stop-color="#465be5" stop-opacity="1"/>
        <stop offset="1" stop-color="#9000cd" stop-opacity="1"/>
    </linearGradient>
    <path id="Rounded-Rectangle" fill="url(#linearGradient1)" fill-rule="evenodd" stroke="none" d="M 0 850 C -0 977.025513 102.97451 1080 230 1080 L 850 1080 C 977.025513 1080 1080 977.025513 1080 850 L 1080 230 C 1080 102.974487 977.025513 0 850 0 L 230 0 C 102.97451 0 0 102.974487 0 230 Z"/>
    <clipPath id="clipPath1">
        <path clip-rule="evenodd" d="M 955.306121 528.775508 C 955.306121 305.607387 769.367217 124.693874 539.999999 124.693874 C 310.632766 124.693874 124.693878 305.607387 124.693878 528.775508 C 124.693878 751.94363 310.632766 932.857143 539.999999 932.857143 C 769.367217 932.857143 955.306121 751.94363 955.306121 528.775508 Z"/>
    </clipPath>
    <path id="Shape" fill="none" stroke="#ffffff" stroke-width="33.67347" stroke-linecap="round" stroke-linejoin="round" clip-path="url(#clipPath1)" d="M 1056.326538 180.816345 C 1056.326538 75.431335 825.159241 -10 540 -10 C 254.840744 -10 23.67347 75.431335 23.67347 180.816345 C 23.67347 286.201294 254.840744 371.632629 540 371.632629 C 825.159241 371.632629 1056.326538 286.201294 1056.326538 180.816345 Z M 1056.326538 899.183655 C 1056.326538 793.798706 825.159241 708.36731 540 708.36731 C 254.840744 708.36731 23.67347 793.798706 23.67347 899.183655 C 23.67347 1004.568604 254.840744 1090 540 1090 C 825.159241 1090 1056.326538 1004.568604 1056.326538 899.183655 Z"/>
    <path id="Oval-copy-2" fill="none" stroke="#ffffff" stroke-width="33.67347" stroke-linecap="round" stroke-linejoin="round" d="M 730.816345 528.775513 C 730.816345 305.607361 645.384949 124.693848 540 124.693848 C 434.615051 124.693848 349.183685 305.607361 349.183685 528.775513 C 349.183685 751.943604 434.615051 932.857178 540 932.857178 C 645.384949 932.857178 730.816345 751.943604 730.816345 528.775513 Z"/>
    <path id="Oval" fill="none" stroke="#ffffff" stroke-width="38.163265" stroke-linecap="round" stroke-linejoin="round" d="M 955.306091 528.775513 C 955.306091 305.607361 769.380432 124.693848 540.029541 124.693848 C 310.678619 124.693848 124.752953 305.607361 124.752953 528.775513 C 124.752953 751.943604 310.678619 932.857178 540.029541 932.857178 C 769.380432 932.857178 955.306091 751.943604 955.306091 528.775513 Z"/>
    <path id="Line" fill="none" stroke="#ffffff" stroke-width="33.67347" stroke-linecap="round" stroke-linejoin="round" d="M 124.693962 540.00647 L 955.306152 540"/>
    <path id="Line-copy" fill="none" stroke="#ffffff" stroke-width="33.67347" stroke-linecap="round" stroke-linejoin="round" d="M 540.005493 932.857056 L 540 124.693848"/>
    <linearGradient id="linearGradient2" x1="617.44898" y1="585.049114" x2="853.163265" y2="993.318233" gradientUnits="userSpaceOnUse">
        <stop offset="0" stop-color="#6646e5" stop-opacity="1"/>
        <stop offset="0.864331" stop-color="#7d00cd" stop-opacity="1"/>
    </linearGradient>
    <path id="path1" fill="url(#linearGradient2)" fill-rule="evenodd" stroke="#ffffff" stroke-width="38.163265" stroke-linecap="round" stroke-linejoin="round" d="M 971.020386 789.183716 C 971.020386 659.002258 865.487549 553.469421 735.306091 553.469421 C 605.124695 553.469421 499.591827 659.002258 499.591827 789.183716 C 499.591827 919.365112 605.124695 1024.897949 735.306091 1024.897949 C 865.487549 1024.897949 971.020386 919.365112 971.020386 789.183716 Z"/>
    <path id="path2" fill="#ffffff" fill-rule="evenodd" stroke="none" d="M 775.438782 789.744873 C 775.438782 768.064941 757.863647 750.489807 736.183655 750.489807 C 714.503662 750.489807 696.928589 768.064941 696.928589 789.744873 C 696.928589 811.424927 714.503662 829 736.183655 829 C 757.863647 829 775.438782 811.424927 775.438782 789.744873 Z"/>
    <path id="path3" fill="none" stroke="#ffffff" stroke-width="38" stroke-linecap="round" stroke-linejoin="round" d="M 736 789 L 736.000061 626"/>
    <path id="path4" fill="#ffffff" fill-rule="evenodd" stroke="#ffffff" stroke-width="38" stroke-linecap="round" stroke-linejoin="round" d="M 842.999634 882.000488 L 742 792"/>
    <path id="Oval-copy-4" fill="#ffffff" fill-rule="evenodd" stroke="none" d="M 629.938782 662.663269 C 629.938782 650.146729 619.792114 640 607.275513 640 C 594.758911 640 584.612244 650.146729 584.612244 662.663269 C 584.612244 675.17981 594.758911 685.326538 607.275513 685.326538 C 619.792114 685.326538 629.938782 675.17981 629.938782 662.663269 Z"/>
    <path id="Oval-copy-5" fill="#ffffff" fill-rule="evenodd" stroke="none" d="M 584.938782 789.663269 C 584.938782 777.146729 574.792114 767 562.275513 767 C 549.758911 767 539.612244 777.146729 539.612244 789.663269 C 539.612244 802.17981 549.758911 812.326538 562.275513 812.326538 C 574.792114 812.326538 584.938782 802.17981 584.938782 789.663269 Z"/>
    <path id="Oval-copy-6" fill="#ffffff" fill-rule="evenodd" stroke="none" d="M 629.938782 910.663269 C 629.938782 898.146729 619.792114 888 607.275513 888 C 594.758911 888 584.612244 898.146729 584.612244 910.663269 C 584.612244 923.17981 594.758911 933.326538 607.275513 933.326538 C 619.792114 933.326538 629.938782 923.17981 629.938782 910.663269 Z"/>
    <path id="Oval-copy-7" fill="#ffffff" fill-rule="evenodd" stroke="none" d="M 757.938782 967.663269 C 757.938782 955.146667 747.792114 945 735.275513 945 C 722.758911 945 712.612244 955.146667 712.612244 967.663269 C 712.612244 980.17981 722.758911 990.326538 735.275513 990.326538 C 747.792114 990.326538 757.938782 980.17981 757.938782 967.663269 Z"/>
    <path id="Oval-copy-8" fill="#ffffff" fill-rule="evenodd" stroke="none" d="M 933.938782 789.663269 C 933.938782 777.146729 923.792114 767 911.275513 767 C 898.758911 767 888.612244 777.146729 888.612244 789.663269 C 888.612244 802.17981 898.758911 812.326538 911.275513 812.326538 C 923.792114 812.326538 933.938782 802.17981 933.938782 789.663269 Z"/>
    <path id="Oval-copy-9" fill="#ffffff" fill-rule="evenodd" stroke="none" d="M 888.938782 662.663269 C 888.938782 650.146729 878.792114 640 866.275513 640 C 853.758911 640 843.612244 650.146729 843.612244 662.663269 C 843.612244 675.17981 853.758911 685.326538 866.275513 685.326538 C 878.792114 685.326538 888.938782 675.17981 888.938782 662.663269 Z"/>
</svg>
